# xmcd
#
# Track frame offsets:
#	150
#	14722
#	32295
#	52827
#	71817
#	86865
#	102385
#	125295
#	146177
#	162610
#	173902
#	192000
#	210622
#	230450
#	243917
#	258505
#	283460
#
# Disc length: 3955 seconds
#
# Revision: 0
# Processed by: cddbd v1.5.1PL0 Copyright (c) Steve Scherf et al.
# Submitted via: dBpowerAMP V4.0
#
DISCID=fd0f7111
DTITLE=Kathy Sabo - The Distance
DYEAR=1900
DGENRE=Country
TTITLE0=Down at The Twist and Shout
TTITLE1=Aces
TTITLE2=The Distance
TTITLE3=Crazy
TTITLE4=Save the Last Dance For Me
TTITLE5=I'm at Home on the Range
TTITLE6=Georgia on My Mind
TTITLE7=Arrow
TTITLE8=Cryin'
TTITLE9=San Antonio Rose
TTITLE10=Misty
TTITLE11=I fall to Pieces
TTITLE12=The Rose
TTITLE13=I Want to be Cowboy Sweetheart
TTITLE14=Falling Stars
TTITLE15=I Can't Make You Love Me
TTITLE16=Outbound Plane
EXTD=Private release by Cheyenne, Wyoming area musicians
EXTT0=
EXTT1=
EXTT2=
EXTT3=
EXTT4=
EXTT5=
EXTT6=
EXTT7=
EXTT8=
EXTT9=
EXTT10=
EXTT11=
EXTT12=
EXTT13=
EXTT14=
EXTT15=
EXTT16=
PLAYORDER=
